#!OML:ASF H:\Male1\Project 1\Capture day 1\Session 1\Male1.ASF
:FULLY-SPECIFIED
:DEGREES
303
root 47.7997 14.7891 3.34155 541.663 -13.3467 548.039
lowerback 18.7511 2.87924 7.25358
upperback 8.80026 3.54042 -1.01767
thorax -0.376109 1.43098 -5.82174
lowerneck 4.62064 15.5674 20.1788
upperneck -11.383 20.7291 -29.5027
head 1.60661 10.7798 -11.6173
rclavicle 1.31198e-014 4.53229e-014
rhumerus -49.5483 13.2591 -99.085
rradius 95.7057
rwrist -21.6876
rhand -35.9256 17.2396
rfingers 7.12502
rthumb -9.03801 -12.5468
lclavicle 1.31198e-014 4.53229e-014
lhumerus -44.5205 -8.13084 88.2258
lradius 86.71
lwrist 23.2971
lhand -33.1601 8.96934
lfingers 7.12502
lthumb -6.3688 38.8536
rfemur -18.3688 -13.8665 28.4661
rtibia 42.0555
rfoot -29.1995 -31.4804
rtoes -22.5637
lfemur -35.4166 1.56002 -16.4529
ltibia 63.6026
lfoot -24.8115 8.23347
ltoes -0.887121
304
root 47.8423 14.7841 3.26582 541.383 -16.4307 548.242
lowerback 18.3884 2.81928 7.44272
upperback 8.76718 3.53679 -0.86658
thorax -0.223841 1.4643 -5.74793
lowerneck 4.04159 15.2971 20.3307
upperneck -11.1468 20.2924 -29.5949
head 1.69632 10.5126 -11.6849
rclavicle -1.06946e-013 1.39149e-014
rhumerus -48.6235 13.6113 -98.7152
rradius 94.6095
rwrist -21.5237
rhand -35.3678 17.8712
rfingers 7.12502
rthumb -8.49973 -11.9377
lclavicle -1.06946e-013 1.39149e-014
lhumerus -43.9312 -8.01711 88.2714
lradius 85.3555
lwrist 22.9681
lhand -32.7508 7.85662
lfingers 7.12502
lthumb -5.97364 37.7524
rfemur -17.9467 -15.1425 28.8255
rtibia 42.1476
rfoot -30.2039 -32.4633
rtoes -20.7934
lfemur -35.8551 3.67107 -16.9821
ltibia 64.1401
lfoot -25.1308 8.2551
ltoes -0.188622
305
root 47.8705 14.7777 3.18921 541.001 -19.3905 548.555
lowerback 18.1182 2.76846 7.69241
upperback 8.77163 3.54135 -0.693544
thorax -0.0719863 1.49703 -5.68993
lowerneck 3.41067 15.0093 20.379
upperneck -10.9559 19.802 -29.6453
head 1.7507 10.2158 -11.7329
rclavicle 3.57812e-014 -1.70955e-014
rhumerus -47.4557 14.1617 -98.1961
rradius 93.4703
rwrist -21.358
rhand -34.9131 18.4741
rfingers 7.12502
rthumb -8.06088 -11.3521
lclavicle 3.57812e-014 -1.70955e-014
lhumerus -43.3478 -7.78454 88.2824
lradius 83.9011
lwrist 22.5574
lhand -32.3308 6.91176
lfingers 7.12502
lthumb -5.56813 36.8186
rfemur -17.4524 -16.2497 29.2243
rtibia 42.2128
rfoot -31.5871 -33.2289
rtoes -18.2126
lfemur -36.3061 5.58621 -17.3438
ltibia 64.6131
lfoot -25.3405 8.12769
ltoes -0.345607
306
root 47.8847 14.7711 3.11248 540.574 -22.2193 548.78
lowerback 17.9443 2.7298 7.81068
upperback 8.81802 3.52969 -0.537476
thorax 0.0634793 1.51213 -5.5773
lowerneck 2.77512 14.7257 20.3001
upperneck -10.8057 19.2977 -29.6584
head 1.77164 9.91413 -11.7544
rclavicle -4.77083e-014 3.10104e-014
rhumerus -46.0519 14.9594 -97.5004
rradius 92.3507
rwrist -21.2303
rhand -34.6288 19.0204
rfingers 7.12502
rthumb -7.78652 -10.8163
lclavicle -4.77083e-014 3.10104e-014
lhumerus -42.8103 -7.40291 88.2812
lradius 82.3417
lwrist 22.159
lhand -31.9294 6.0995
lfingers 7.12502
lthumb -5.1806 36.0162
rfemur -16.8714 -17.2171 29.4458
rtibia 42.2567
rfoot -33.2703 -33.7849
rtoes -15.0958
lfemur -36.6929 7.27439 -17.7702
ltibia 64.9508
lfoot -25.4814 7.96653
ltoes -1.22461
307
root 47.8849 14.7625 3.03747 540.17 -24.9723 548.828
lowerback 17.8524 2.67741 7.76077
upperback 8.8949 3.46808 -0.425031
thorax 0.170764 1.49353 -5.41258
lowerneck 2.16444 14.442 20.0968
upperneck -10.6743 18.7863 -29.6217
head 1.76136 9.61299 -11.7447
rclavicle -1.23246e-014 5.36719e-014
rhumerus -44.421 15.9971 -96.6127
rradius 91.3094
rwrist -21.1769
rhand -34.4999 19.4653
rfingers 7.12502
rthumb -7.66208 -10.3759
lclavicle -1.23246e-014 5.36719e-014
lhumerus -42.3437 -6.91363 88.2511
lradius 80.6852
lwrist 21.8977
lhand -31.5694 5.47591
lfingers 7.12502
lthumb -4.83296 35.4008
rfemur -16.2331 -18.1518 29.404
rtibia 42.3003
rfoot -35.0911 -34.1854
rtoes -11.8598
lfemur -37.0188 8.71466 -18.3766
ltibia 65.1302
lfoot -25.5177 7.86971
ltoes -2.73411
308
root 47.8703 14.7544 2.96392 539.8 -27.6177 548.764
lowerback 17.8251 2.61224 7.60706
upperback 8.98439 3.37212 -0.338534
thorax 0.246716 1.45136 -5.21516
lowerneck 1.60307 14.1646 19.7772
upperneck -10.5521 18.2865 -29.5253
head 1.72361 9.32346 -11.6986
rclavicle -3.47873e-014 2.10712e-014
rhumerus -42.588 17.2567 -95.5148
rradius 90.3948
rwrist -21.2021
rhand -34.5011 19.7461
rfingers 7.12502
rthumb -7.66322 -10.0951
lclavicle -3.47873e-014 2.10712e-014
lhumerus -42.0114 -6.31366 88.1975
lradius 78.9754
lwrist 21.8878
lhand -31.1994 4.90651
lfingers 7.12502
lthumb -4.47566 34.8392
rfemur -15.5258 -19.0878 29.1762
rtibia 42.3129
rfoot -36.9186 -34.4904
rtoes -8.80551
lfemur -37.2475 9.8504 -19.077
ltibia 65.1289
lfoot -25.5196 7.83223
ltoes -4.01393
309
root 47.8411 14.7422 2.89332 539.456 -30.1479 548.643
lowerback 17.8734 2.53898 7.41231
upperback 9.06595 3.26253 -0.270329
thorax 0.271966 1.39773 -5.01619
lowerneck 1.10477 13.8906 19.3846
upperneck -10.4388 17.8018 -29.3641
head 1.6618 9.04757 -11.6204
rclavicle -7.59357e-014 6.40087e-014
rhumerus -40.5815 18.6568 -94.2068
rradius 89.6341
rwrist -21.2869
rhand -34.4911 19.9331
rfingers 7.12502
rthumb -7.65361 -9.9084
lclavicle -7.59357e-014 6.40087e-014
lhumerus -41.8795 -5.67207 88.1196
lradius 77.2951
lwrist 22.1991
lhand -30.8625 4.41831
lfingers 7.12502
lthumb -4.15033 34.3576
rfemur -14.7601 -20.0539 28.828
rtibia 42.2826
rfoot -38.6372 -34.7617
rtoes -6.11694
lfemur -37.4168 10.8058 -19.8196
ltibia 64.9989
lfoot -25.5026 7.77666
ltoes -4.82898
310
root 47.7969 14.7317 2.82495 539.165 -32.5324 548.556
lowerback 17.9457 2.48701 7.28024
upperback 9.09806 3.1997 -0.234503
thorax 0.245901 1.36953 -4.89664
lowerneck 0.676952 13.592 19.0135
upperneck -10.3288 17.3023 -29.1238
head 1.57734 8.76897 -11.5252
rclavicle -5.92378e-014 -5.56597e-015
rhumerus -38.4518 20.02 -92.7433
rradius 89.0358
rwrist -21.4072
rhand -34.5376 20.0027
rfingers 7.12502
rthumb -7.69851 -9.83713
lclavicle -5.92378e-014 -5.56597e-015
lhumerus -42.055 -5.1064 87.9968
lradius 75.7972
lwrist 22.699
lhand -30.5499 3.91855
lfingers 7.12502
lthumb -3.84849 33.8635
rfemur -13.9796 -21.0303 28.4771
rtibia 42.1443
rfoot -40.0955 -35.0877
rtoes -3.96298
lfemur -37.6031 11.5687 -20.5137
ltibia 64.7548
lfoot -25.4927 7.66431
ltoes -4.94656
311
root 47.7375 14.7222 2.75809 538.937 -34.7277 548.547
lowerback 18.0037 2.47473 7.22189
upperback 9.08001 3.20714 -0.227355
thorax 0.190705 1.38007 -4.8607
lowerneck 0.268447 13.2902 18.6953
upperneck -10.2314 16.8094 -28.8251
head 1.48803 8.49391 -11.4169
rclavicle 4.96962e-015 -8.74653e-015
rhumerus -36.2001 21.2998 -91.1647
rradius 88.5859
rwrist -21.5759
rhand -34.6129 20.0094
rfingers 7.12502
rthumb -7.77117 -9.82783
lclavicle 4.96962e-015 -8.74653e-015
lhumerus -42.5873 -4.65529 87.8213
lradius 74.6361
lwrist 23.1898
lhand -30.3641 3.37038
lfingers 7.12502
lthumb -3.66908 33.3185
rfemur -13.214 -21.9608 28.1887
rtibia 41.8647
rfoot -41.2849 -35.4943
rtoes -2.34536
lfemur -37.8773 12.2772 -21.1277
ltibia 64.4357
lfoot -25.4918 7.35819
ltoes -4.48472
312
root 47.6633 14.7163 2.69136 538.777 -36.7113 548.61
lowerback 18.0403 2.54448 7.24782
upperback 9.00218 3.3427 -0.28448
thorax 0.110521 1.46018 -4.9616
lowerneck -0.154574 12.964 18.5277
upperneck -10.1159 16.2979 -28.4694
head 1.4116 8.20484 -11.313
rclavicle -8.54774e-014 3.57812e-014
rhumerus -33.887 22.3083 -89.5624
rradius 88.2699
rwrist -21.8088
rhand -34.7758 19.9921
rfingers 7.12502
rthumb -7.92836 -9.83918
lclavicle -8.54774e-014 3.57812e-014
lhumerus -43.5461 -4.49824 87.5971
lradius 73.9371
lwrist 23.4914
lhand -30.3669 2.74146
lfingers 7.12502
lthumb -3.67182 32.6896
rfemur -12.4307 -22.7847 27.9608
rtibia 41.3757
rfoot -42.2418 -35.9658
rtoes -1.21776
lfemur -38.2072 12.9912 -21.6966
ltibia 64.0394
lfoot -25.502 6.93769
ltoes -4.22704
313
root 47.5738 14.7187 2.62226 538.7 -38.4677 548.706
lowerback 18.0417 2.70201 7.2706
upperback 8.87653 3.59673 -0.394402
thorax 0.0172498 1.60137 -5.13558
lowerneck -0.613782 12.6242 18.4494
upperneck -9.99312 15.7725 -28.0395
head 1.3418 7.90371 -11.1957
rclavicle 1.17681e-013 -5.00937e-014
rhumerus -31.5663 23.0911 -87.999
rradius 88.0781
rwrist -22.0716
rhand -35.0881 19.8637
rfingers 7.12502
rthumb -8.2298 -9.95599
lclavicle 1.17681e-013 -5.00937e-014
lhumerus -44.9187 -4.58293 87.3563
lradius 73.7217
lwrist 23.5113
lhand -30.5437 2.00148
lfingers 7.12502
lthumb -3.84254 31.9466
rfemur -11.5784 -23.438 27.7612
rtibia 40.6284
rfoot -43.0345 -36.4629
rtoes -0.453692
lfemur -38.5697 13.749 -22.2584
ltibia 63.5506
lfoot -25.4689 6.51632
ltoes -4.86956
314
root 47.4689 14.7322 2.54884 538.704 -39.996 548.831
lowerback 17.9801 2.93907 7.20853
upperback 8.71079 3.94288 -0.518423
thorax -0.0793265 1.78672 -5.2892
lowerneck -1.09568 12.2832 18.3765
upperneck -9.86577 15.2465 -27.5343
head 1.27135 7.60029 -11.0506
rclavicle 1.04561e-013 -4.03533e-014
rhumerus -29.3048 23.7343 -86.5102
rradius 88.0111
rwrist -22.3535
rhand -35.4376 19.6985
rfingers 7.12502
rthumb -8.56706 -10.1077
lclavicle 1.04561e-013 -4.03533e-014
lhumerus -46.6782 -4.80431 87.177
lradius 73.9464
lwrist 23.4092
lhand -30.918 0.935256
lfingers 7.12502
lthumb -4.20396 30.8735
rfemur -10.6157 -23.8574 27.5946
rtibia 39.5776
rfoot -43.7497 -36.9625
rtoes 0.0905688
lfemur -38.9134 14.5373 -22.7985
ltibia 62.9606
lfoot -25.4686 5.96902
ltoes -5.31945
315
root 47.3481 14.7545 2.4705 538.767 -41.3629 549.038
lowerback 17.8281 3.23726 7.09279
upperback 8.50022 4.3621 -0.637317
thorax -0.171807 2.00808 -5.41407
lowerneck -1.63449 11.9337 18.3011
upperneck -9.69034 14.7117 -26.9471
head 1.21558 7.28759 -10.8719
rclavicle -1.26626e-013 1.80894e-014
rhumerus -27.1904 24.2035 -85.1549
rradius 88.076
rwrist -22.5725
rhand -35.7306 19.5471
rfingers 7.12502
rthumb -8.84982 -10.2473
lclavicle -1.26626e-013 1.80894e-014
lhumerus -48.7561 -5.15235 87.1112
lradius 74.5229
lwrist 23.2384
lhand -31.4226 -0.264061
lfingers 7.12502
lthumb -4.69122 29.664
rfemur -9.54965 -24.0307 27.5207
rtibia 38.2196
rfoot -44.4566 -37.4729
rtoes 0.428396
lfemur -39.2405 15.2973 -23.3012
ltibia 62.255
lfoot -25.3851 5.57009
ltoes -5.87585
316
root 47.2113 14.7844 2.3865 538.856 -42.5884 549.35
lowerback 17.5937 3.59337 6.91319
upperback 8.241 4.84996 -0.731991
thorax -0.272503 2.26182 -5.48267
lowerneck -2.23365 11.5716 18.1944
upperneck -9.44372 14.1647 -26.269
head 1.17854 6.96473 -10.6522
rclavicle 1.30602e-013 -4.23411e-014
rhumerus -25.3395 24.5197 -83.9921
rradius 88.3092
rwrist -22.7279
rhand -35.9167 19.3913
rfingers 7.12502
rthumb -9.0294 -10.3954
lclavicle 1.30602e-013 -4.23411e-014
lhumerus -51.0681 -5.56064 87.1895
lradius 75.3212
lwrist 23.097
lhand -31.9518 -1.51631
lfingers 7.12502
lthumb -5.2022 28.3998
rfemur -8.37411 -23.8981 27.5554
rtibia 36.6024
rfoot -45.2301 -37.9539
rtoes 0.667206
lfemur -39.4821 15.9661 -23.7169
ltibia 61.4222
lfoot -25.2472 5.26256
ltoes -5.61074
